<svg width="64" height="64" viewBox="0 0 64 64" fill="none" xmlns="http://www.w3.org/2000/svg">
<path d="M29.0623 1.24023C31.7901 0.856133 34.5669 1.01312 37.2341 1.70215C39.9013 2.39118 42.4067 3.59861 44.6072 5.25586C46.8077 6.9132 48.6605 8.98802 50.0593 11.3613C51.3707 13.5864 52.259 16.0332 52.6814 18.5781L52.7595 19.0879C53.6713 25.5811 52.0113 32.2363 48.0583 37.8311C45.8599 40.939 43.111 43.4362 40.3064 45.002C39.8577 45.2526 39.5226 45.6662 39.3708 46.1572C39.2191 46.6483 39.2619 47.1795 39.491 47.6396L40.9988 50.668V50.6689C41.0879 50.848 41.1211 51.0499 41.0945 51.248C41.068 51.4444 40.9835 51.628 40.8523 51.7764C40.6825 51.9592 40.4543 52.0775 40.2068 52.1094L40.2009 52.1104L39.2761 52.2354H39.2742C39.1212 52.2563 38.974 52.3056 38.8396 52.3799L38.7087 52.4629C38.5422 52.584 38.4077 52.7442 38.3181 52.9297C38.2284 53.1153 38.1864 53.3204 38.1951 53.5264C38.2034 53.7249 38.2592 53.9182 38.3572 54.0908V54.0918C40.1285 57.2338 42.9208 59.6765 46.2703 61.0146C46.8185 61.2335 47.0715 61.8153 46.906 62.2939C46.8619 62.4214 46.7925 62.5387 46.7019 62.6387C46.6112 62.7387 46.5013 62.8196 46.3787 62.876C46.256 62.9323 46.1229 62.9631 45.988 62.9668C45.8535 62.9704 45.7197 62.9468 45.5945 62.8975C41.2535 61.1807 37.851 57.925 35.866 53.6143L35.865 53.6123L35.8191 53.5225C35.7045 53.3196 35.5346 53.1522 35.3289 53.04C35.0938 52.9119 34.8236 52.8625 34.5583 52.8994H34.5574L32.3308 53.2119L32.324 53.2129C32.281 53.2192 32.2375 53.2228 32.1941 53.2227H32.1912C32.0082 53.2228 31.8281 53.172 31.6716 53.0771C31.516 52.9827 31.3889 52.8478 31.3044 52.6865C31.2002 52.4804 31.1681 52.2453 31.2126 52.0186L31.2146 52.0068L31.823 48.709L31.824 48.708C31.9161 48.2049 31.812 47.6846 31.533 47.2559C31.254 46.8273 30.8211 46.5219 30.324 46.4023L30.3191 46.4014L29.7302 46.2529C26.7766 45.4573 23.6726 43.8638 20.8875 41.6338C15.546 37.3381 12.1159 31.4051 11.2068 24.9336C9.59741 13.4807 17.6084 2.84983 29.0613 1.24023H29.0623ZM19.3748 24.8047C18.9783 24.7843 18.5814 24.8436 18.2078 24.9775C17.8343 25.1115 17.491 25.3184 17.198 25.5859C16.905 25.8535 16.668 26.1764 16.5007 26.5361C16.3334 26.8961 16.2391 27.286 16.2234 27.6826C16.2077 28.0791 16.2707 28.4748 16.4089 28.8467C18.3382 34.2159 22.7004 38.8515 27.9031 41.0869L28.4099 41.2959C28.4435 41.3092 28.4784 41.319 28.5125 41.3311V41.5078L29.5115 41.5088C30.2099 41.5092 30.8873 41.2654 31.4255 40.8203C31.9636 40.3753 32.3299 39.7562 32.4607 39.0703C32.5914 38.3844 32.4789 37.6743 32.1423 37.0625C31.8057 36.4506 31.2655 35.9755 30.616 35.7188H30.6169C27.6954 34.5616 23.9894 31.7296 22.2175 27.25L22.0525 26.8115C21.9228 26.4405 21.7213 26.0981 21.4597 25.8047C21.1956 25.5085 20.8751 25.2673 20.5173 25.0957C20.1595 24.9242 19.771 24.8251 19.3748 24.8047Z" fill="#0F059A" stroke="black" stroke-width="2"/>
</svg>
